{"title":"YellowBrickRoad.2010.DVDRip.XviD.AC3-SiC","uid":6573593,"size":1626593128,"categoryP":"video","categoryS":"movies","magnet":"?xt=urn:btih:16f319573e94f0adc2229592a311cc33df8d2b04&amp;dn=YellowBrickRoad.2010.DVDRip.XviD.AC3-SiC&amp;tr=udp%3A%2F%2Ftracker.openbittorrent.com%3A80&amp;tr=udp%3A%2F%2Fopen.demonii.com%3A1337&amp;tr=udp%3A%2F%2Ftracker.coppersurfer.tk%3A6969&amp;tr=udp%3A%2F%2Fexodus.desync.com%3A6969","seeders":0,"leechers":1,"uploader":"TvTeam","files":5,"time":1312087464,"description":". \n  &lt;a href=&quot;\nhttp://www.torrenting.com/&quot; rel=&quot;nofollow&quot; target=&quot;_NEW&quot;&gt;\nhttp://www.torrenting.com/&lt;/a&gt;        :     Greatest Movie Tracker on The Net!!!\n &lt;a href=&quot;\nhttp://www.Torrenting.com&quot; rel=&quot;nofollow&quot; target=&quot;_NEW&quot;&gt;\nhttp://www.Torrenting.com&lt;/a&gt;          :     Once &amp; For all ;)\n\n\n               www . Torrenting . Com \n\n(((((((((((((= Enjoy No RAR releases =))))))))))))))))))))\n\n\n...................................NFO:....................................\n\n.\n\n\n\n\n\n\n\n\n\n\n\n\n\n\n\n\n\n\n\n\n\n\n\n\n\n\n\n\n\n\n\n\n\n\n\n\n\n\n\n\n          \n          \n              \n              \n                    \n                    \n                    \n                    \n\nYellowBrickRoad.2010.DVDSCR.XviD-SiC\n\nPoster:\n[img]http://leetleech.org/images/34599014723062696298.jpg[/img]\n\nIMDB Link:\nhttp://www.imdb.com/title/tt1398428/\n\nDescription:\n1940: the entire population of Friar, New Hampshire walked up \na winding mountain trail, leaving everything behind. 2008: \nthe first official expedition into the wilderness attempts to solve \nthe mystery of the lost citizens of Friar. \n\nMediainfo:\nGeneral\nComplete name                    : YellowBrickRoad.2010.DVDSCR.XviD-SiC.avi\nFormat                           : AVI\nFormat/Info                      : Audio Video Interleave\nFormat profile                   : OpenDML\nFile size                        : 1.28 GiB\nDuration                         : 1h 40mn\nOverall bit rate                 : 1 821 Kbps\nWriting application              : Lavf52.91.0\n\nVideo\nID                               : 0\nFormat                           : xvid\nCodec ID                         : xvid\nDuration                         : 1h 40mn\nBit rate                         : 381 Kbps\nWidth                            : 640 pixels\nHeight                           : 360 pixels\nDisplay aspect ratio             : 16:9\nFrame rate                       : 29.970 fps\nBits/(Pixel*Frame)               : 0.055\nStream size                      : 274 MiB (21%)\n\nAudio\nID                               : 1\nFormat                           : MPEG Audio\nFormat version                   : Version 1\nFormat profile                   : Layer 3\nMode                             : Joint stereo\nMode extension                   : MS Stereo\nCodec ID                         : 55\nCodec ID/Hint                    : MP3\nDuration                         : 1h 40mn\nBit rate mode                    : Constant\nBit rate                         : 256 Kbps\nChannel(s)                       : 2 channels\nSampling rate                    : 44.1 KHz\nCompression mode                 : Lossy\nStream size                      : 41.3 MiB (3%)\nAlignment                        : Aligned on interleaves\nInterleave, duration             : 31 ms (0.94 video frame)\nWriting library                  : LAME\n\nScreenshots:\n[img]http://leetleech.org/images/18763691877434692449.png[/img]\n[img]http://leetleech.org/images/18457517925399613373.png[/img]\n[img]http://leetleech.org/images/87997410753809917267.png[/img]\n[img]http://leetleech.org/images/36603372453871359251.png[/img]\n[img]http://leetleech.org/images/92444974329085596300.png[/img]\n\nNote: N/A\n\nEncoder: Thefuzz\n\nEnjoy!\n\nRespects to CaptainHomey, Cyanide, CM8, Rx, Pirate666, THC, \nELEKTRI4KA, Killerhz, XtremE, PA and everyone in the struggle...","torrent":{"xt":"urn:btih:16f319573e94f0adc2229592a311cc33df8d2b04","amp;dn":"YellowBrickRoad.2010.DVDRip.XviD.AC3-SiC","amp;tr":["udp%3A%2F%2Ftracker.openbittorrent.com%3A80","udp%3A%2F%2Fopen.demonii.com%3A1337","udp%3A%2F%2Ftracker.coppersurfer.tk%3A6969","udp%3A%2F%2Fexodus.desync.com%3A6969"],"infoHash":"16f319573e94f0adc2229592a311cc33df8d2b04","infoHashBuffer":{"type":"Buffer","data":[22,243,25,87,62,148,240,173,194,34,149,146,163,17,204,51,223,141,43,4]},"announce":[],"urlList":[]}}